{
  "accessors": [
    {
      "bufferView": 2,
      "componentType": 5126,
      "count": 9148,
      "max": [
        7.912304878234863,
        3.641796588897705,
        7.4344892501831055
      ],
      "min": [
        -3.646963119506836,
        -4.111522674560547,
        0.019095182418823242
      ],
      "type": "VEC3"
    },
    {
      "bufferView": 2,
      "byteOffset": 109776,
      "componentType": 5126,
      "count": 9148,
      "max": [
        0.9997495412826538,
        0.9999160766601563,
        0.9999999403953552
      ],
      "min": [
        -0.9996502995491028,
        -0.9995779991149902,
        -0.9999996423721313
      ],
      "type": "VEC3"
    },
    {
      "bufferView": 3,
      "componentType": 5126,
      "count": 9148,
      "max": [
        0.9995812177658081,
        0.9989550113677979,
        0.9998664855957031,
        1.0
      ],
      "min": [
        -0.9995791912078857,
        -0.9999188780784607,
        -0.9991838335990906,
        -1.0
      ],
      "type": "VEC4"
    },
    {
      "bufferView": 1,
      "componentType": 5126,
      "count": 9148,
      "max": [
        1.784824252128601,
        0.9892050623893738
      ],
      "min": [
        0.01189512386918068,
        0.0036774128675460815
      ],
      "type": "VEC2"
    },
    {
      "bufferView": 1,
      "byteOffset": 73184,
      "componentType": 5126,
      "count": 9148,
      "max": [
        1.784824252128601,
        0.9892050623893738
      ],
      "min": [
        0.01189512386918068,
        0.0036774128675460815
      ],
      "type": "VEC2"
    },
    {
      "bufferView": 1,
      "byteOffset": 146368,
      "componentType": 5126,
      "count": 9148,
      "max": [
        1.784824252128601,
        0.9892050623893738
      ],
      "min": [
        0.01189512386918068,
        0.0036774128675460815
      ],
      "type": "VEC2"
    },
    {
      "bufferView": 1,
      "byteOffset": 219552,
      "componentType": 5126,
      "count": 9148,
      "max": [
        1.784824252128601,
        0.9892050623893738
      ],
      "min": [
        0.01189512386918068,
        0.0036774128675460815
      ],
      "type": "VEC2"
    },
    {
      "bufferView": 0,
      "componentType": 5125,
      "count": 49770,
      "type": "SCALAR"
    }
  ],
  "asset": {
    "extras": {
      "author": "rjducats (https://sketchfab.com/rjducats)",
      "license": "CC-BY-4.0 (http://creativecommons.org/licenses/by/4.0/)",
      "source": "https://sketchfab.com/3d-models/stylized-prop-the-dwarven-cooks-stew-pot-fe20d4cfaab34c5ebc6d105bcd0fbaae",
      "title": "[Stylized Prop] The Dwarven Cook's Stew Pot"
    },
    "generator": "Sketchfab-15.70.0",
    "version": "2.0"
  },
  "bufferViews": [
    {
      "buffer": 0,
      "byteLength": 199080,
      "name": "floatBufferViews",
      "target": 34963
    },
    {
      "buffer": 0,
      "byteLength": 292736,
      "byteOffset": 199080,
      "byteStride": 8,
      "name": "floatBufferViews",
      "target": 34962
    },
    {
      "buffer": 0,
      "byteLength": 219552,
      "byteOffset": 491816,
      "byteStride": 12,
      "name": "floatBufferViews",
      "target": 34962
    },
    {
      "buffer": 0,
      "byteLength": 146368,
      "byteOffset": 711368,
      "byteStride": 16,
      "name": "floatBufferViews",
      "target": 34962
    }
  ],
  "buffers": [
    {
      "byteLength": 857736,
      "uri": "scene.bin"
    }
  ],
  "images": [
    {
      "uri": "textures/material_baseColor.png"
    },
    {
      "uri": "textures/material_metallicRoughness.png"
    },
    {
      "uri": "textures/material_normal.png"
    }
  ],
  "materials": [
    {
      "doubleSided": true,
      "name": "material",
      "normalTexture": {
        "index": 2
      },
      "pbrMetallicRoughness": {
        "baseColorTexture": {
          "index": 0
        },
        "metallicRoughnessTexture": {
          "index": 1
        }
      }
    }
  ],
  "meshes": [
    {
      "name": "PotBody_Low_Pot_0",
      "primitives": [
        {
          "attributes": {
            "NORMAL": 1,
            "POSITION": 0,
            "TANGENT": 2,
            "TEXCOORD_0": 3,
            "TEXCOORD_1": 4,
            "TEXCOORD_2": 5,
            "TEXCOORD_3": 6
          },
          "indices": 7,
          "material": 0,
          "mode": 4
        }
      ]
    }
  ],
  "nodes": [
    {
      "children": [
        1
      ],
      "matrix": [
        1.0,
        0.0,
        0.0,
        0.0,
        0.0,
        2.220446049250313e-16,
        -1.0,
        0.0,
        0.0,
        1.0,
        2.220446049250313e-16,
        0.0,
        0.0,
        0.0,
        0.0,
        1.0
      ],
      "name": "Sketchfab_model"
    },
    {
      "children": [
        2
      ],
      "matrix": [
        0.009999999776482582,
        0.0,
        0.0,
        0.0,
        0.0,
        0.0,
        0.009999999776482582,
        0.0,
        0.0,
        -0.009999999776482582,
        0.0,
        0.0,
        0.0,
        0.0,
        0.0,
        1.0
      ],
      "name": "c62cfdc33dff4e40be89de8ffd7e5a9e.fbx"
    },
    {
      "children": [
        3,
        6,
        9,
        12,
        15
      ],
      "name": "RootNode"
    },
    {
      "children": [
        4
      ],
      "matrix": [
        100.0,
        0.0,
        0.0,
        0.0,
        0.0,
        -1.629206793918314e-05,
        -99.99999999999868,
        0.0,
        0.0,
        99.99999999999868,
        -1.629206793918314e-05,
        0.0,
        0.0,
        0.0,
        0.0,
        1.0
      ],
      "name": "Lowpoly"
    },
    {
      "children": [
        5
      ],
      "matrix": [
        1.0,
        0.0,
        0.0,
        0.0,
        0.0,
        1.0,
        -2.646977960169688e-23,
        0.0,
        0.0,
        2.646977960169688e-23,
        1.0,
        0.0,
        0.0,
        0.0,
        0.0,
        1.0
      ],
      "name": "PotBody_Low"
    },
    {
      "mesh": 0,
      "name": "PotBody_Low_Pot_0"
    },
    {
      "children": [
        7
      ],
      "matrix": [
        95.22762834889147,
        -28.006986171663023,
        -12.137031128973758,
        0.0,
        25.484638981879577,
        51.06650389025378,
        82.11422140159377,
        0.0,
        -16.79976115927443,
        -81.28850414423292,
        55.766899850936326,
        0.0,
        222.10545349121094,
        928.7141723632813,
        329.0589904785156,
        1.0
      ],
      "name": "Area"
    },
    {
      "children": [
        8
      ],
      "matrix": [
        1.0,
        0.0,
        0.0,
        0.0,
        0.0,
        2.220446049250313e-16,
        1.0,
        0.0,
        0.0,
        -1.0,
        2.220446049250313e-16,
        0.0,
        0.0,
        0.0,
        0.0,
        1.0
      ],
      "name": "Object_7"
    },
    {
      "name": "Object_8"
    },
    {
      "children": [
        10
      ],
      "matrix": [
        598.6010774923888,
        -66.38822816134987,
        -7.101406229321297e-14,
        0.0,
        -66.38822816134912,
        -598.6010774923818,
        9.094042719283484e-05,
        0.0,
        -1.0024343632493867e-05,
        -9.038624802896164e-05,
        -602.2712402343681,
        0.0,
        -541.391845703125,
        -139.9573974609375,
        -38.90380096435547,
        1.0
      ],
      "name": "Area.001"
    },
    {
      "children": [
        11
      ],
      "matrix": [
        1.0,
        0.0,
        0.0,
        0.0,
        0.0,
        2.220446049250313e-16,
        1.0,
        0.0,
        0.0,
        -1.0,
        2.220446049250313e-16,
        0.0,
        0.0,
        0.0,
        0.0,
        1.0
      ],
      "name": "Object_10"
    },
    {
      "name": "Object_11"
    },
    {
      "children": [
        13
      ],
      "matrix": [
        99.9814050323992,
        1.92778625593246,
        0.06175579116138494,
        0.0,
        -1.9277862595676565,
        99.77639221966986,
        6.39974387323362,
        0.0,
        0.0617556729723655,
        -6.399743386066972,
        99.79498720291188,
        0.0,
        0.0,
        806.6224365234375,
        25.50859832763672,
        1.0
      ],
      "name": "Point"
    },
    {
      "children": [
        14
      ],
      "matrix": [
        1.0,
        0.0,
        0.0,
        0.0,
        0.0,
        2.220446049250313e-16,
        1.0,
        0.0,
        0.0,
        -1.0,
        2.220446049250313e-16,
        0.0,
        0.0,
        0.0,
        0.0,
        1.0
      ],
      "name": "Object_13"
    },
    {
      "name": "Object_14"
    },
    {
      "children": [
        16
      ],
      "matrix": [
        100.0,
        0.0,
        0.0,
        0.0,
        0.0,
        99.99999999999972,
        -7.5497901264043296e-06,
        0.0,
        0.0,
        7.5497901264043296e-06,
        99.99999999999972,
        0.0,
        -399.40704345703125,
        514.1271362304688,
        951.23291015625,
        1.0
      ],
      "name": "Point.004"
    },
    {
      "children": [
        17
      ],
      "matrix": [
        1.0,
        0.0,
        0.0,
        0.0,
        0.0,
        2.220446049250313e-16,
        1.0,
        0.0,
        0.0,
        -1.0,
        2.220446049250313e-16,
        0.0,
        0.0,
        0.0,
        0.0,
        1.0
      ],
      "name": "Object_16"
    },
    {
      "name": "Object_17"
    }
  ],
  "samplers": [
    {
      "magFilter": 9729,
      "minFilter": 9987,
      "wrapS": 10497,
      "wrapT": 10497
    }
  ],
  "scene": 0,
  "scenes": [
    {
      "name": "Sketchfab_Scene",
      "nodes": [
        0
      ]
    }
  ],
  "textures": [
    {
      "sampler": 0,
      "source": 0
    },
    {
      "sampler": 0,
      "source": 1
    },
    {
      "sampler": 0,
      "source": 2
    }
  ]
}
